<?xml version="1.0" encoding="UTF-8"?>
<svg version="1.1" xmlns="http://www.w3.org/2000/svg" width="800" height="800">
<path d="M0 0 C30.09332903 26.31095648 50.09542814 62.47265698 55.68652344 102.16943359 C55.77933594 102.81082275 55.87214844 103.45221191 55.96777344 104.11303711 C61.50179436 146.83864329 50.37692653 192.263217 23.99560547 226.50195312 C-3.63093622 261.69204632 -41.57344559 285.86802078 -86.31347656 292.16943359 C-86.95486572 292.26224609 -87.59625488 292.35505859 -88.25708008 292.45068359 C-130.98268626 297.98470452 -176.40725997 286.85983669 -210.64599609 260.47851562 C-245.84803265 232.84259761 -270.00918566 194.92989901 -276.31347656 150.16943359 C-276.40628906 149.52804443 -276.49910156 148.88665527 -276.59472656 148.22583008 C-282.02486572 106.3022468 -271.48778222 61.31264329 -245.87597656 27.43896484 C-216.7705051 -10.02873246 -177.48304093 -34.29077335 -130.11816406 -40.42041016 C-82.43111935 -45.29342517 -36.32534932 -31.12198847 0 0 Z " fill="#FBFBFB" transform="translate(510.3134765625,273.83056640625)"/>
<path d="M0 0 C8.09828952 5.84744141 14.09323257 12.98484293 16 23 C16.9664303 33.71357015 15.92150262 42.92013708 8.98587036 51.4881897 C-0.44698882 61.62315998 -10.22831208 71.41169133 -20.0078125 81.2109375 C-20.96700444 82.17287305 -21.9261396 83.1348652 -22.88521957 84.09691238 C-27.38561796 88.61090708 -31.88795473 93.12295461 -36.39320862 97.63210332 C-41.55881621 102.80220487 -46.71778367 107.97881517 -51.87118638 113.16108167 C-55.8840175 117.19559393 -59.90265796 121.22425998 -63.92567718 125.248613 C-66.31656215 127.64053924 -68.70502295 130.03476482 -71.08740616 132.43516159 C-73.7427778 135.10765506 -76.40752806 137.77044959 -79.07470703 140.43115234 C-79.84793304 141.21359314 -80.62115906 141.99603394 -81.41781616 142.80218506 C-90.69817757 152.01241172 -99.5683124 158.21945827 -112.875 158.4375 C-123.2863946 158.33934705 -130.49175163 155.4701336 -138.0234375 148.2578125 C-144.61518295 140.72811117 -147.38068314 131.04263801 -146.84375 121.109375 C-144.57201019 105.46932014 -132.51728209 95.37634248 -121.87524414 84.69824219 C-121.01217148 83.82859833 -120.14909882 82.95895447 -119.25987244 82.06295776 C-116.43782913 79.22139951 -113.61196492 76.38369007 -110.78515625 73.546875 C-109.80311097 72.56077225 -108.8210956 71.5746397 -107.83910942 70.58847809 C-103.22846243 65.95886375 -98.61546428 61.3316082 -93.99951941 56.70727611 C-88.70267039 51.40063698 -83.41423092 46.08579603 -78.13267809 40.7639339 C-74.0248053 36.62580485 -69.90919409 32.4954736 -65.7878179 28.37079358 C-63.33687115 25.91751068 -60.88925582 23.4611205 -58.44984627 20.99636078 C-55.7290807 18.24776748 -52.99233309 15.51542721 -50.25415039 12.78417969 C-49.46267609 11.97989532 -48.67120178 11.17561096 -47.85574341 10.34695435 C-35.19302776 -2.199764 -16.80825411 -10.39310379 0 0 Z " fill="#F2F2F2" transform="translate(253,535)"/>
<path d="M0 0 C7.05887231 5.65003293 11.11048713 12.46180758 13.62890625 21.06640625 C14.8747138 33.21302982 11.84622194 42.37237162 4.17374802 51.81082916 C0.51413575 56.10551217 -3.41745665 60.09517955 -7.40771484 64.08105469 C-8.29990219 64.97995926 -9.19208954 65.87886383 -10.11131287 66.80500793 C-12.53020058 69.24135974 -14.95534368 71.67138543 -17.38233519 74.09966183 C-18.90389444 75.62265325 -20.42401645 77.14706453 -21.94365311 78.67197418 C-27.26046987 84.00721885 -32.5823503 89.33735019 -37.90917969 94.66259766 C-42.8512111 99.60342622 -47.78195758 104.55532187 -52.70758951 109.5124948 C-56.95971305 113.79086028 -61.21960466 118.06138678 -65.48550665 122.3260138 C-68.02338791 124.86338821 -70.55815356 127.40368367 -73.08509445 129.9519577 C-75.90408655 132.79410431 -78.73908496 135.61976119 -81.57568359 138.44433594 C-82.80732994 139.69284081 -82.80732994 139.69284081 -84.06385803 140.96656799 C-92.50961046 149.32202978 -101.58652575 155.73954402 -113.80859375 155.87890625 C-124.68824276 155.66154207 -132.09191459 152.56829291 -139.953125 145.01953125 C-146.72910003 137.15695842 -148.7029883 128.65377308 -148.4453125 118.48828125 C-146.83571011 98.70762541 -125.20986437 83.41599513 -112.11328125 70.29296875 C-111.15408931 69.3310332 -110.19495415 68.36904105 -109.23587418 67.40699387 C-104.73547579 62.89299917 -100.23313902 58.38095164 -95.72788513 53.87180293 C-90.56227754 48.70170138 -85.40331008 43.52509108 -80.24990737 38.34282458 C-76.23707625 34.30831232 -72.21843579 30.27964627 -68.19541657 26.25529325 C-65.8045316 23.86336701 -63.4160708 21.46914143 -61.03368759 19.06874466 C-58.37831595 16.39625119 -55.71356569 13.73345666 -53.04638672 11.07275391 C-52.27316071 10.29031311 -51.49993469 9.50787231 -50.70327759 8.70172119 C-36.34261841 -5.55040976 -18.15918253 -12.28954778 0 0 Z " fill="#F2F2F2" transform="translate(679.12109375,113.49609375)"/>
<path d="M0 0 C6.78636566 4.71679365 12.6387048 10.34179993 18.46362305 16.1730957 C19.36238159 17.06513702 20.26114014 17.95717834 21.18713379 18.87625122 C23.62769298 21.29931412 26.06189468 23.72866393 28.49436164 26.1598475 C30.01952456 27.68357974 31.54610672 29.20587529 33.07319069 30.72768211 C38.41492113 36.05097163 43.75152455 41.37933852 49.08325195 46.71264648 C54.03144448 51.66204114 58.99069513 56.60015989 63.95523995 61.53314716 C68.23783218 65.78949611 72.51258407 70.05361456 76.78143722 74.32374257 C79.32217987 76.86499217 81.86584648 79.40312355 84.41748619 81.93343544 C87.26453234 84.75732514 90.09508685 87.59722393 92.92456055 90.4387207 C93.75846817 91.26138931 94.59237579 92.08405792 95.45155334 92.93165588 C104.01089585 101.58332034 110.40807133 110.70858571 110.375 123.1875 C110.3114143 133.85173034 107.72046305 141.14610859 100.29296875 149.01953125 C91.50231089 156.61214375 81.32916796 157.93239201 70.14453125 157.26074219 C56.51159256 155.60318543 45.94171776 142.08744514 36.79003906 132.96704102 C35.93014877 132.11372192 35.07025848 131.26040283 34.18431091 130.38122559 C31.37522307 127.59164933 28.56997172 124.79824606 25.765625 122.00390625 C24.79066618 121.03300504 23.81567763 120.06213367 22.8406601 119.09129143 C18.26337203 114.53296964 13.68844212 109.97229742 9.11643529 105.40867859 C3.87035614 100.17238961 -1.38392388 94.94451162 -6.64522529 89.72351891 C-10.73664666 85.66235591 -14.82026787 81.59345281 -18.89823937 77.51878494 C-21.32357702 75.09578318 -23.75201895 72.67611245 -26.18883514 70.26465034 C-28.90464715 67.57326592 -31.60746696 64.86943836 -34.30761719 62.16235352 C-35.10255081 61.38022995 -35.89748444 60.59810638 -36.71650696 59.7922821 C-46.255768 50.1638292 -51.42482943 40.69547688 -51.36572266 27.04492188 C-51.21870589 21.16964643 -50.15983208 16.9120131 -47 12 C-46.57589844 11.30519531 -46.15179687 10.61039063 -45.71484375 9.89453125 C-35.69316073 -4.98445774 -15.38326288 -8.72489022 0 0 Z " fill="#F2F2F2" transform="translate(583,536)"/>
<path d="M0 0 C4.26052739 3.62919458 8.2192774 7.52611734 12.17282867 11.48406601 C13.06197968 12.36649979 13.95113068 13.24893356 14.86722565 14.15810776 C17.27580887 16.55108596 19.6798738 18.94840937 22.0813036 21.34855413 C23.58754417 22.85336237 25.09520457 24.3567332 26.60336304 25.85961914 C31.88025253 31.11808181 37.15202958 36.38160673 42.41892242 41.65008163 C47.30521992 46.53758198 52.20258347 51.413796 57.10522485 56.28489673 C61.33688251 60.49031072 65.56069902 64.70349416 69.77861762 68.92268765 C72.28804682 71.43262364 74.8003944 73.93944452 77.32072449 76.43843842 C80.13170804 79.22626399 82.92629051 82.03019264 85.71970367 84.83562851 C86.54268951 85.64737534 87.36567535 86.45912216 88.21360016 87.29546738 C97.82830146 97.01520535 103.11290024 106.45665305 103.05319977 120.24431992 C102.906183 126.11959536 101.84730919 130.37722869 98.68747711 135.28924179 C98.26337555 135.98404648 97.83927399 136.67885117 97.40232086 137.39471054 C92.61320019 144.50502062 85.95542397 149.07101215 77.68747711 151.28924179 C64.06749595 152.51447022 54.98878808 150.2118462 44.33117676 141.54419899 C40.11735791 137.95000055 36.20247777 134.09092134 32.29392242 130.17034531 C31.41452499 129.29605881 30.53512756 128.42177231 29.62908173 127.52099228 C27.24741683 125.15074313 24.87026231 122.77615956 22.49557972 120.39892697 C20.5018957 118.40416349 18.50522109 116.41240621 16.50861526 114.42056793 C11.79555789 109.71855013 7.08777865 105.01129413 2.38327789 100.3007164 C-2.4500342 95.46135674 -7.29247323 90.6312692 -12.13942981 85.80557877 C-16.32263225 81.64004826 -20.49994422 77.46867328 -24.67269635 73.29267448 C-27.1554527 70.80811546 -29.64032068 68.32577188 -32.13096619 65.84911919 C-34.90803501 63.08707541 -37.67276721 60.31287745 -40.43654633 57.53753281 C-41.25018143 56.73154144 -42.06381653 55.92555008 -42.90210724 55.09513474 C-51.72815647 46.18757143 -58.06401519 37.1125676 -58.68752289 24.22674179 C-57.61386487 12.95333255 -53.23364955 4.06278334 -44.49611664 -3.17169571 C-29.82959082 -13.50910389 -13.40935246 -10.90026575 0 0 Z " fill="#F2F2F2" transform="translate(165.3125228881836,116.71075820922852)"/>
<path d="M0 0 C1.38233209 -0.00435381 2.76466177 -0.00953918 4.14698792 -0.01548767 C7.88269827 -0.02881872 11.61830708 -0.02946282 15.35403657 -0.02692437 C18.48243758 -0.0258504 21.61081841 -0.03074902 24.73921508 -0.03552979 C32.1259636 -0.04660514 39.51266126 -0.04707386 46.89941406 -0.04101562 C54.4963644 -0.03498034 62.09312932 -0.04728001 69.69004804 -0.06858569 C76.23301421 -0.08625459 82.77592165 -0.09219465 89.31891078 -0.08894795 C93.21761572 -0.08714297 97.11618846 -0.08969204 101.0148716 -0.10366249 C104.6847976 -0.11632229 108.35443669 -0.11422062 112.02435875 -0.1012516 C113.99622739 -0.09779304 115.96810513 -0.10900414 117.93994141 -0.12081909 C130.56247919 -0.04693671 139.68214432 2.12845125 148.91479492 10.8684082 C155.87380639 18.22656496 157.85786066 26.42997084 157.69726562 36.37646484 C157.22986622 46.52588074 153.54820079 52.88084355 146.59448242 60.1418457 C137.46016241 68.38538079 126.18140447 68.57196716 114.46240234 68.54931641 C113.08007025 68.55367021 111.69774058 68.55885558 110.31541443 68.56480408 C106.57970407 68.57813513 102.84409526 68.57877923 99.10836577 68.57624078 C95.97996476 68.5751668 92.85158393 68.58006543 89.72318727 68.5848462 C82.33643874 68.59592154 74.94974108 68.59639027 67.56298828 68.59033203 C59.96603794 68.58429674 52.36927302 68.59659642 44.7723543 68.6179021 C38.22938813 68.635571 31.68648069 68.64151105 25.14349157 68.63826436 C21.24478662 68.63645937 17.34621389 68.63900844 13.44753075 68.6529789 C9.77760475 68.66563869 6.10796566 68.66353703 2.43804359 68.65056801 C0.46617495 68.64710945 -1.50570279 68.65832054 -3.47753906 68.6701355 C-16.10007685 68.59625311 -25.21974197 66.42086516 -34.45239258 57.6809082 C-41.41140404 50.32275144 -43.39545832 42.11934556 -43.23486328 32.17285156 C-42.76746388 22.02343567 -39.08579844 15.66847286 -32.13208008 8.4074707 C-22.99776006 0.16393562 -11.71900213 -0.02265075 0 0 Z " fill="#F4F4F4" transform="translate(642.768798828125,365.725341796875)"/>
<path d="M0 0 C1.38233209 -0.00435381 2.76466177 -0.00953918 4.14698792 -0.01548767 C7.88269827 -0.02881872 11.61830708 -0.02946282 15.35403657 -0.02692437 C18.48243758 -0.0258504 21.61081841 -0.03074902 24.73921508 -0.03552979 C32.1259636 -0.04660514 39.51266126 -0.04707386 46.89941406 -0.04101562 C54.4963644 -0.03498034 62.09312932 -0.04728001 69.69004804 -0.06858569 C76.23301421 -0.08625459 82.77592165 -0.09219465 89.31891078 -0.08894795 C93.21761572 -0.08714297 97.11618846 -0.08969204 101.0148716 -0.10366249 C104.6847976 -0.11632229 108.35443669 -0.11422062 112.02435875 -0.1012516 C113.99622739 -0.09779304 115.96810513 -0.10900414 117.93994141 -0.12081909 C130.56247919 -0.04693671 139.68214432 2.12845125 148.91479492 10.8684082 C155.87380639 18.22656496 157.85786066 26.42997084 157.69726562 36.37646484 C157.22986622 46.52588074 153.54820079 52.88084355 146.59448242 60.1418457 C137.46016241 68.38538079 126.18140447 68.57196716 114.46240234 68.54931641 C113.08007025 68.55367021 111.69774058 68.55885558 110.31541443 68.56480408 C106.57970407 68.57813513 102.84409526 68.57877923 99.10836577 68.57624078 C95.97996476 68.5751668 92.85158393 68.58006543 89.72318727 68.5848462 C82.33643874 68.59592154 74.94974108 68.59639027 67.56298828 68.59033203 C59.96603794 68.58429674 52.36927302 68.59659642 44.7723543 68.6179021 C38.22938813 68.635571 31.68648069 68.64151105 25.14349157 68.63826436 C21.24478662 68.63645937 17.34621389 68.63900844 13.44753075 68.6529789 C9.77760475 68.66563869 6.10796566 68.66353703 2.43804359 68.65056801 C0.46617495 68.64710945 -1.50570279 68.65832054 -3.47753906 68.6701355 C-16.10007685 68.59625311 -25.21974197 66.42086516 -34.45239258 57.6809082 C-41.41140404 50.32275144 -43.39545832 42.11934556 -43.23486328 32.17285156 C-42.76746388 22.02343567 -39.08579844 15.66847286 -32.13208008 8.4074707 C-22.99776006 0.16393562 -11.71900213 -0.02265075 0 0 Z " fill="#F4F4F4" transform="translate(42.768798828125,365.725341796875)"/>
<path d="M0 0 C9.60912029 6.05439505 15.18357716 12.95779112 17.87431908 23.90840721 C18.80079959 29.29716417 18.59769638 34.7736112 18.5871582 40.22583008 C18.59151201 41.60816217 18.59669738 42.99049185 18.60264587 44.37281799 C18.61597693 48.10852835 18.61662103 51.84413716 18.61408257 55.57986665 C18.6130086 58.70826766 18.61790722 61.83664849 18.622688 64.96504515 C18.63376334 72.35179368 18.63423207 79.73849134 18.62817383 87.12524414 C18.62213854 94.72219448 18.63443822 102.3189594 18.6557439 109.91587812 C18.67341279 116.45884429 18.67935285 123.00175173 18.67610615 129.54474086 C18.67430117 133.4434458 18.67685024 137.34201853 18.69082069 141.24070168 C18.70348049 144.91062768 18.70137883 148.58026677 18.68840981 152.25018883 C18.68495125 154.22205747 18.69616234 156.19393521 18.70797729 158.16577148 C18.63409491 170.78830927 16.45870695 179.9079744 7.71875 189.140625 C0.36059324 196.09963646 -7.84281264 198.08369074 -17.78930664 197.9230957 C-27.77868513 197.46306632 -34.30028561 193.86517151 -41.484375 187.03125 C-47.52539688 179.97268011 -49.80152029 171.67214592 -49.82794189 162.53890991 C-49.83365204 161.35312347 -49.83936218 160.16733704 -49.84524536 158.94561768 C-49.84636322 157.65307068 -49.84748108 156.36052368 -49.84863281 155.02880859 C-49.85326481 153.64692046 -49.85828998 152.26503359 -49.86367798 150.88314819 C-49.87677007 147.13489181 -49.88324107 143.38665333 -49.88768864 139.63837767 C-49.89062543 137.29262396 -49.89473145 134.94687508 -49.89919281 132.60112381 C-49.91286135 125.25042188 -49.9225303 117.89973106 -49.9263947 110.54901731 C-49.93086948 102.0853512 -49.94839302 93.62184707 -49.9773953 85.15823019 C-49.99907351 78.60259437 -50.0091023 72.0470039 -50.01043582 65.49133265 C-50.01147976 61.58251051 -50.01729902 57.67384076 -50.03525543 53.76505661 C-50.051842 50.08287537 -50.05384088 46.40095931 -50.04511642 42.71875381 C-50.04398976 40.73968818 -50.05762634 38.76063092 -50.0718689 36.78161621 C-50.01334169 24.14217462 -47.84539797 15.01843818 -39.09375 5.7734375 C-28.9793083 -3.79234345 -12.59643269 -6.02160549 0 0 Z " fill="#F4F4F4" transform="translate(415.6875,602.54296875)"/>
<path d="M0 0 C9.60912029 6.05439505 15.18357716 12.95779112 17.87431908 23.90840721 C18.80079959 29.29716417 18.59769638 34.7736112 18.5871582 40.22583008 C18.59151201 41.60816217 18.59669738 42.99049185 18.60264587 44.37281799 C18.61597693 48.10852835 18.61662103 51.84413716 18.61408257 55.57986665 C18.6130086 58.70826766 18.61790722 61.83664849 18.622688 64.96504515 C18.63376334 72.35179368 18.63423207 79.73849134 18.62817383 87.12524414 C18.62213854 94.72219448 18.63443822 102.3189594 18.6557439 109.91587812 C18.67341279 116.45884429 18.67935285 123.00175173 18.67610615 129.54474086 C18.67430117 133.4434458 18.67685024 137.34201853 18.69082069 141.24070168 C18.70348049 144.91062768 18.70137883 148.58026677 18.68840981 152.25018883 C18.68495125 154.22205747 18.69616234 156.19393521 18.70797729 158.16577148 C18.63409491 170.78830927 16.45870695 179.9079744 7.71875 189.140625 C0.36059324 196.09963646 -7.84281264 198.08369074 -17.78930664 197.9230957 C-27.77868513 197.46306632 -34.30028561 193.86517151 -41.484375 187.03125 C-47.52539688 179.97268011 -49.80152029 171.67214592 -49.82794189 162.53890991 C-49.83365204 161.35312347 -49.83936218 160.16733704 -49.84524536 158.94561768 C-49.84636322 157.65307068 -49.84748108 156.36052368 -49.84863281 155.02880859 C-49.85326481 153.64692046 -49.85828998 152.26503359 -49.86367798 150.88314819 C-49.87677007 147.13489181 -49.88324107 143.38665333 -49.88768864 139.63837767 C-49.89062543 137.29262396 -49.89473145 134.94687508 -49.89919281 132.60112381 C-49.91286135 125.25042188 -49.9225303 117.89973106 -49.9263947 110.54901731 C-49.93086948 102.0853512 -49.94839302 93.62184707 -49.9773953 85.15823019 C-49.99907351 78.60259437 -50.0091023 72.0470039 -50.01043582 65.49133265 C-50.01147976 61.58251051 -50.01729902 57.67384076 -50.03525543 53.76505661 C-50.051842 50.08287537 -50.05384088 46.40095931 -50.04511642 42.71875381 C-50.04398976 40.73968818 -50.05762634 38.76063092 -50.0718689 36.78161621 C-50.01334169 24.14217462 -47.84539797 15.01843818 -39.09375 5.7734375 C-28.9793083 -3.79234345 -12.59643269 -6.02160549 0 0 Z " fill="#F4F4F4" transform="translate(415.6875,2.54296875)"/>
</svg>
